HIERARCHY
ROOT Hips
{
 OFFSET 0.000000 0.000000 0.000000
 CHANNELS 6 Xposition Yposition Zposition Yrotation Xrotation Zrotation
 JOINT Chest
 {
  OFFSET 0.000000 9.585900 0.002600
  CHANNELS 3 Yrotation Xrotation Zrotation
  JOINT Chest2
  {
   OFFSET 0.000000 9.601200 -0.005300
   CHANNELS 3 Yrotation Xrotation Zrotation
   JOINT Chest3
   {
    OFFSET 0.000000 9.561800 0.000000
    CHANNELS 3 Yrotation Xrotation Zrotation
    JOINT Chest4
    {
     OFFSET 0.000000 9.552100 0.000000
     CHANNELS 3 Yrotation Xrotation Zrotation
     JOINT Neck
     {
      OFFSET 0.000000 14.453000 0.000000
      CHANNELS 3 Yrotation Xrotation Zrotation
      JOINT Head
      {
       OFFSET 0.000000 8.936500 -0.011300
       CHANNELS 3 Yrotation Xrotation Zrotation
       End Site
       {
        OFFSET 0.000000 17.073600 -0.006000
       }
      }
     }
     JOINT RightCollar
     {
      OFFSET -2.921100 9.558500 0.000000
      CHANNELS 3 Yrotation Xrotation Zrotation
      JOINT RightShoulder
      {
       OFFSET -13.519700 0.000000 0.000000
       CHANNELS 3 Yrotation Xrotation Zrotation
       JOINT RightElbow
       {
        OFFSET 0.000000 -29.696600 0.000000
        CHANNELS 3 Yrotation Xrotation Zrotation
        JOINT RightWrist
        {
         OFFSET 0.000000 -24.004700 0.000000
         CHANNELS 3 Yrotation Xrotation Zrotation
         End Site
         {
          OFFSET 0.000000 -17.728500 0.000000
         }
        }
       }
      }
     }
     JOINT LeftCollar
     {
      OFFSET 2.921100 9.558500 0.000000
      CHANNELS 3 Yrotation Xrotation Zrotation
      JOINT LeftShoulder
      {
       OFFSET 13.519700 0.000000 0.000000
       CHANNELS 3 Yrotation Xrotation Zrotation
       JOINT LeftElbow
       {
        OFFSET 0.000000 -29.696600 0.000000
        CHANNELS 3 Yrotation Xrotation Zrotation
        JOINT LeftWrist
        {
         OFFSET 0.000000 -24.004700 0.000000
         CHANNELS 3 Yrotation Xrotation Zrotation
         End Site
         {
          OFFSET 0.000000 -17.728500 0.000000
         }
        }
       }
      }
     }
    }
   }
  }
 }
 JOINT RightHip
 {
  OFFSET -7.771700 -0.012900 -0.001300
  CHANNELS 3 Yrotation Xrotation Zrotation
  JOINT RightKnee
  {
   OFFSET 0.000000 -40.869800 0.001200
   CHANNELS 3 Yrotation Xrotation Zrotation
   JOINT RightAnkle
   {
    OFFSET 0.000000 -39.717900 0.002100
    CHANNELS 3 Yrotation Xrotation Zrotation
    JOINT RightToe
    {
     OFFSET 0.000000 -4.965400 11.033500
     CHANNELS 3 Yrotation Xrotation Zrotation
     End Site
     {
      OFFSET 0.000000 -1.423100 5.872300
     }
    }
   }
  }
 }
 JOINT LeftHip
 {
  OFFSET 7.771700 -0.012900 -0.001300
  CHANNELS 3 Yrotation Xrotation Zrotation
  JOINT LeftKnee
  {
   OFFSET 0.000000 -40.869800 0.001200
   CHANNELS 3 Yrotation Xrotation Zrotation
   JOINT LeftAnkle
   {
    OFFSET 0.000000 -39.717900 0.002100
    CHANNELS 3 Yrotation Xrotation Zrotation
    JOINT LeftToe
    {
     OFFSET 0.000000 -4.965400 11.033500
     CHANNELS 3 Yrotation Xrotation Zrotation
     End Site
     {
      OFFSET 0.000000 -1.423100 5.872300
     }
    }
   }
  }
 }
}
MOTION
Frames: 12
Frame Time: 0.008333
0.000000 85.388000 0.000000 0.000000 -5.767877 0.000000 0.000000 11.653817 0.000000 0.000000 -5.885947 0.000000 0.000000 -0.000000 0.000000 0.000000 -0.000000 0.000000 0.000000 12.528835 0.000000 0.000000 0.711642 0.000000 0.000000 -0.000000 0.000000 0.000000 0.000000 -90.000000 0.000000 -2.309062 0.000000 0.000000 2.309062 0.000000 0.000000 -0.000000 0.000000 0.000000 -0.000000 90.000000 0.000000 -2.309062 0.000000 0.000000 2.309062 0.000000 0.000000 8.520406 0.000000 0.000000 1.905762 0.000000 -0.000000 -4.658285 0.000000 0.000000 -0.000000 0.000000 0.000000 8.520406 0.000000 0.000000 1.905762 0.000000 -0.000000 -4.658285 0.000000 0.000000 -0.000000 0.000000
-7.507077 55.559491 25.986463 -179.718180 -27.764008 -11.005504 -0.209953 12.156757 6.834109 -0.273037 7.207060 2.477414 -0.270819 9.002306 3.097273 -0.298697 7.138229 2.499831 2.689624 22.130548 -3.215862 3.634618 -1.937365 -4.145117 0.135539 -0.081842 -3.389878 -9.128916 -5.484504 4.198216 -81.019588 -54.048394 113.152303 3.409471 -2.917915 2.046618 -10.214100 1.410691 -2.737870 3.194124 -0.465840 -1.417403 -145.279603 -67.408804 149.772951 20.799795 -11.913639 -8.122753 -19.747389 -36.607361 9.574752 42.157873 85.517288 38.857819 2.212613 -19.612968 -1.207120 -0.904071 2.298124 -0.409329 -16.136931 -49.713076 17.928246 173.845506 79.990289 168.972072 -1.930504 -17.071278 2.146617 -0.594570 -1.449753 -0.275071
-7.504682 55.553803 25.980609 -179.733695 -27.687360 -11.018113 -0.257160 12.103188 6.846296 -0.290210 7.154980 2.485237 -0.245290 8.995493 3.090736 -0.353920 7.064885 2.524953 2.697686 22.222726 -3.407062 3.701220 -1.811447 -4.306590 0.159076 -0.093430 -3.403703 -8.927668 -5.575213 4.032399 -80.374240 -54.195637 112.568787 3.492843 -2.812928 1.473483 -10.185293 1.359401 -2.750037 2.754083 -0.162045 -1.341531 -144.225923 -67.292508 148.759302 20.676023 -12.378167 -7.878577 -19.782429 -36.674937 9.633544 42.223377 85.525697 38.922536 2.215098 -19.626204 -1.209147 -0.885122 2.304590 -0.406646 -16.227016 -49.782031 18.013080 173.851063 79.969387 168.959944 -1.917104 -17.081564 2.139537 -0.605863 -1.448308 -0.276768
-7.501434 55.547084 25.972385 -179.750168 -27.605986 -11.036006 -0.269197 12.028592 6.870439 -0.341348 7.119147 2.490769 -0.257661 8.952944 3.101599 -0.376751 7.033852 2.524706 2.710778 22.294962 -3.571508 3.755592 -1.715966 -4.490921 0.185259 -0.101207 -3.404491 -8.713221 -5.664496 3.872571 -79.812950 -54.386902 112.044581 3.593445 -2.728635 0.966759 -10.164521 1.322317 -2.770323 2.388647 0.112279 -1.258349 -143.368535 -67.192965 147.853924 20.602716 -12.829493 -7.793634 -19.823310 -36.744296 9.699745 42.314156 85.535035 39.011660 2.227843 -19.642729 -1.215195 -0.882813 2.311455 -0.403618 -16.294008 -49.859101 18.091578 173.879437 79.945953 168.988926 -1.915629 -17.101341 2.138145 -0.609059 -1.440097 -0.276601
-7.495981 55.540345 25.960645 -179.745854 -27.529363 -11.077072 -0.313017 11.971900 6.900319 -0.356971 7.083523 2.494557 -0.289525 8.908941 3.112754 -0.388234 7.001359 2.526498 2.719676 22.343706 -3.734046 3.804814 -1.648218 -4.672134 0.215374 -0.103450 -3.396877 -8.506684 -5.739549 3.726575 -79.329229 -54.592996 111.585431 3.698640 -2.661012 0.546066 -10.152925 1.301477 -2.799196 2.083030 0.356073 -1.167738 -142.714104 -67.121510 147.074798 20.575914 -13.288417 -7.821078 -19.886699 -36.801371 9.780852 42.364293 85.558889 39.067081 2.214126 -19.653901 -1.209418 -0.888723 2.302477 -0.406678 -16.400391 -49.898172 18.210066 174.105029 79.940563 169.239947 -2.041149 -17.217564 2.079364 -0.467549 -1.341855 -0.214665
-7.499641 55.538146 25.932440 -179.717071 -27.544015 -11.073852 -0.368269 12.005615 6.871547 -0.371153 7.052136 2.498323 -0.364237 8.816764 3.131092 -0.357485 7.023770 2.513062 2.723778 22.366849 -3.893555 3.847934 -1.610830 -4.848837 0.248217 -0.101907 -3.382748 -8.321928 -5.795351 3.596396 -78.901130 -54.784853 111.185610 3.799485 -2.602306 0.216276 -10.148636 1.290158 -2.837747 1.816751 0.571245 -1.070131 -142.232680 -67.081343 146.413860 20.603799 -13.768830 -7.920254 -19.892823 -36.785915 9.748900 42.516581 85.591861 39.225689 2.180859 -19.658765 -1.222390 -0.856913 2.270716 -0.383558 -16.432701 -49.870833 18.179155 174.135038 79.912534 169.259158 -2.034359 -17.237249 2.070129 -0.453670 -1.351508 -0.215761
-7.500414 55.532007 25.909821 -179.739591 -27.523261 -11.063217 -0.399991 12.011166 6.845279 -0.358705 7.009875 2.513018 -0.400511 8.764108 3.140386 -0.358687 7.009832 2.513108 2.724688 22.363708 -4.050008 3.886606 -1.604546 -5.021327 0.280446 -0.097833 -3.363106 -8.158205 -5.829823 3.483419 -78.501758 -54.939291 110.831383 3.889858 -2.547678 -0.030154 -10.118685 1.326900 -2.882412 1.547288 0.718749 -0.970582 -141.882213 -67.070121 145.850913 20.690136 -14.281285 -8.057056 -19.884284 -36.803391 9.756265 42.668284 85.611493 39.383362 2.159873 -19.702105 -1.225319 -0.833123 2.285640 -0.380202 -16.461995 -49.910584 18.174489 174.019142 79.855651 169.108704 -1.879483 -17.178301 2.105860 -0.592025 -1.444979 -0.279108
-7.496923 55.523572 25.891275 -179.744861 -27.470457 -11.084726 -0.409804 11.965632 6.865087 -0.382292 6.988730 2.515958 -0.418914 8.730139 3.146252 -0.373290 6.982568 2.518034 2.722871 22.333558 -4.204847 3.921745 -1.630261 -5.191201 0.314304 -0.076295 -3.354820 -8.018879 -5.857379 3.406362 -78.118469 -55.045154 110.511656 3.961694 -2.495368 -0.201935 -10.148023 1.303991 -2.935146 1.362695 0.901201 -0.868966 -141.635062 -67.079595 145.373772 20.818242 -14.822836 -8.198912 -19.922142 -36.841186 9.801998 42.870603 85.628516 39.590687 2.167646 -19.736685 -1.232564 -0.835650 2.293730 -0.381487 -16.535808 -49.954525 18.233997 174.062852 79.820052 169.153444 -1.857800 -17.214199 2.091140 -0.594176 -1.439456 -0.281063
-7.491643 55.512038 25.878520 -179.746075 -27.378276 -11.116676 -0.428942 11.882777 6.894371 -0.394586 6.972665 2.519440 -0.439799 8.696472 3.151986 -0.385376 6.957911 2.522779 2.717183 22.276493 -4.356763 3.951810 -1.688099 -5.356719 0.352875 -0.022617 -3.369039 -7.911621 -5.892576 3.380372 -77.748373 -55.104738 110.221501 4.008022 -2.445986 -0.307859 -10.192401 1.288720 -2.993712 1.202509 1.056371 -0.768018 -141.467096 -67.095060 144.975232 20.962948 -15.365511 -8.320118 -19.985839 -36.911147 9.875302 43.034013 85.639219 39.764111 2.165519 -19.779756 -1.242645 -0.841310 2.315545 -0.382341 -16.644140 -50.041039 18.325149 174.099986 79.783355 169.195198 -1.836725 -17.246691 2.080383 -0.606228 -1.422475 -0.281147
-7.481155 55.501514 25.866285 -179.758764 -27.291088 -11.172506 -0.446018 11.822482 6.943653 -0.373390 6.945806 2.529459 -0.466824 8.658754 3.157815 -0.394869 6.934808 2.527252 2.707307 22.195897 -4.503153 3.975792 -1.774106 -5.515040 0.370579 -0.024440 -3.344118 -7.838564 -5.850725 3.324447 -77.360937 -55.112752 109.968317 4.029461 -2.403189 -0.359345 -10.230917 1.292148 -3.054134 1.027740 1.181514 -0.670117 -141.330409 -67.096962 144.631140 21.093415 -15.886466 -8.389667 -20.059432 -36.968980 9.979097 43.269430 85.651563 40.003491 2.225174 -19.824924 -1.253984 -0.911555 2.336708 -0.398217 -16.751806 -50.094214 18.474655 174.311318 79.766615 169.448434 -1.963843 -17.371818 2.028405 -0.468281 -1.322064 -0.227234
-7.477057 55.492437 25.850006 -179.763862 -27.233418 -11.190333 -0.456208 11.776989 6.958134 -0.387100 6.924027 2.531846 -0.472091 8.632288 3.162959 -0.403270 6.913224 2.530909 2.694414 22.098449 -4.643266 3.994837 -1.880300 -5.665638 0.386055 -0.074108 -3.287312 -7.767863 -5.762995 3.240449 -76.977956 -55.071943 109.716424 4.031929 -2.369592 -0.376124 -10.273928 1.294176 -3.118960 0.845835 1.299964 -0.574739 -141.133024 -67.065570 144.273369 21.196469 -16.409231 -8.374140 -20.095812 -37.013567 10.021356 43.499743 85.663598 40.238113 2.246469 -19.858090 -1.264770 -0.893819 2.347342 -0.400506 -16.809763 -50.148385 18.525988 174.352746 79.733064 169.499275 -1.957310 -17.402661 2.019972 -0.466732 -1.315411 -0.226403
-7.471909 55.483879 25.835741 -179.778324 -27.174556 -11.207648 -0.453132 11.722401 6.980345 -0.415439 6.898095 2.532033 -0.466825 8.619436 3.165501 -0.404449 6.906057 2.531043 2.674555 21.978005 -4.772625 4.009843 -1.998879 -5.807482 0.394442 -0.089215 -3.259506 -7.687924 -5.719040 3.225306 -76.630097 -55.025000 109.471806 4.018060 -2.340385 -0.386682 -10.320828 1.279498 -3.181617 0.658759 1.413648 -0.484214 -140.789250 -66.987773 143.820689 21.286662 -16.986546 -8.244264 -20.124244 -37.060653 10.070938 43.668308 85.674354 40.411691 2.264948 -19.885175 -1.269531 -0.899387 2.356289 -0.406167 -16.866074 -50.206776 18.574988 174.344101 79.697872 169.508390 -1.937295 -17.424135 2.004603 -0.474397 -1.316902 -0.230617
